{
    "asset" : {
        "generator" : "Khronos glTF Blender I/O v1.5.17",
        "version" : "2.0"
    },
    "scene" : 0,
    "scenes" : [
        {
            "name" : "Scene",
            "nodes" : [
                0,
                1,
                2,
                3
            ]
        }
    ],
    "nodes" : [
        {
            "mesh" : 0,
            "name" : "\u5927\u6c34\u58f6\u888b@@@@@4a0cfbf0443947a192fb961dd7806555"
        },
        {
            "mesh" : 1,
            "name" : "BezierCurve",
            "rotation" : [
                0,
                1,
                0,
                7.549790126404332e-08
            ],
            "translation" : [
                -0.010906747542321682,
                0.1599999964237213,
                0.0952768623828888
            ]
        },
        {
            "name" : "\u65e5\u5149",
            "translation" : [
                0,
                2.25,
                0
            ]
        },
        {
            "name" : "\u6444\u50cf\u673a",
            "scale" : [
                0.1818973571062088,
                1.2011096477508545,
                0.9074918031692505
            ],
            "translation" : [
                0,
                1.9900000095367432,
                0
            ]
        }
    ],
    "materials" : [
        {
            "alphaMode" : "BLEND",
            "doubleSided" : true,
            "name" : "\u5927\u6c34\u58f6\u888b@@@@@4a0cfbf0443947a192fb961dd7806555",
            "pbrMetallicRoughness" : {
                "baseColorTexture" : {
                    "index" : 0
                },
                "metallicFactor" : 0,
                "roughnessFactor" : 0.5
            }
        },
        {
            "doubleSided" : true,
            "name" : "\u6750\u8d28",
            "pbrMetallicRoughness" : {
                "baseColorTexture" : {
                    "index" : 1
                },
                "metallicFactor" : 0,
                "roughnessFactor" : 0.5
            }
        }
    ],
    "meshes" : [
        {
            "name" : "\u5927\u6c34\u58f6\u888b@@@@@4a0cfbf0443947a192fb961dd7806555",
            "primitives" : [
                {
                    "attributes" : {
                        "POSITION" : 0,
                        "NORMAL" : 1,
                        "TEXCOORD_0" : 2
                    },
                    "indices" : 3,
                    "material" : 0
                }
            ]
        },
        {
            "name" : "BezierCurve",
            "primitives" : [
                {
                    "attributes" : {
                        "POSITION" : 4,
                        "NORMAL" : 5,
                        "TEXCOORD_0" : 6
                    },
                    "indices" : 7,
                    "material" : 1
                }
            ]
        }
    ],
    "textures" : [
        {
            "sampler" : 0,
            "source" : 0
        },
        {
            "sampler" : 1,
            "source" : 1
        }
    ],
    "images" : [
        {
            "bufferView" : 4,
            "mimeType" : "image/png",
            "name" : "\u5927\u6c34\u58f6\u888b@@@@@4a0cfbf0443947a192fb961dd7806555"
        },
        {
            "bufferView" : 9,
            "mimeType" : "image/jpeg",
            "name" : "a490f2d5537344558c0c043559e7d0c5_t"
        }
    ],
    "accessors" : [
        {
            "bufferView" : 0,
            "componentType" : 5126,
            "count" : 4,
            "max" : [
                0.5,
                0,
                0.5
            ],
            "min" : [
                -0.5,
                0,
                -0.5
            ],
            "type" : "VEC3"
        },
        {
            "bufferView" : 1,
            "componentType" : 5126,
            "count" : 4,
            "type" : "VEC3"
        },
        {
            "bufferView" : 2,
            "componentType" : 5126,
            "count" : 4,
            "type" : "VEC2"
        },
        {
            "bufferView" : 3,
            "componentType" : 5123,
            "count" : 6,
            "type" : "SCALAR"
        },
        {
            "bufferView" : 5,
            "componentType" : 5126,
            "count" : 62,
            "max" : [
                0.15648731589317322,
                0,
                0.377485990524292
            ],
            "min" : [
                -0.15254780650138855,
                0,
                -0.37185588479042053
            ],
            "type" : "VEC3"
        },
        {
            "bufferView" : 6,
            "componentType" : 5126,
            "count" : 62,
            "type" : "VEC3"
        },
        {
            "bufferView" : 7,
            "componentType" : 5126,
            "count" : 62,
            "type" : "VEC2"
        },
        {
            "bufferView" : 8,
            "componentType" : 5123,
            "count" : 180,
            "type" : "SCALAR"
        }
    ],
    "bufferViews" : [
        {
            "buffer" : 0,
            "byteLength" : 48,
            "byteOffset" : 0
        },
        {
            "buffer" : 0,
            "byteLength" : 48,
            "byteOffset" : 48
        },
        {
            "buffer" : 0,
            "byteLength" : 32,
            "byteOffset" : 96
        },
        {
            "buffer" : 0,
            "byteLength" : 12,
            "byteOffset" : 128
        },
        {
            "buffer" : 0,
            "byteLength" : 702228,
            "byteOffset" : 140
        },
        {
            "buffer" : 0,
            "byteLength" : 744,
            "byteOffset" : 702368
        },
        {
            "buffer" : 0,
            "byteLength" : 744,
            "byteOffset" : 703112
        },
        {
            "buffer" : 0,
            "byteLength" : 496,
            "byteOffset" : 703856
        },
        {
            "buffer" : 0,
            "byteLength" : 360,
            "byteOffset" : 704352
        },
        {
            "buffer" : 0,
            "byteLength" : 72384,
            "byteOffset" : 704712
        }
    ],
    "samplers" : [
        {
            "magFilter" : 9729,
            "minFilter" : 9987,
            "wrapS" : 33071,
            "wrapT" : 33071
        },
        {
            "magFilter" : 9729,
            "minFilter" : 9987
        }
    ],
    "buffers" : [
        {
            "byteLength" : 777096,
            "uri" : "data:application/octet-stream;base64,"
        }
    ]
}
